<svg data-v-423bf9ae="" xmlns="http://www.w3.org/2000/svg" viewBox="0 0 535 90" class="iconLeft"><!----><!----><!----><g data-v-423bf9ae="" id="e4f4a338-71c4-4bee-9ad8-9f89c09e7ceb" fill="#131619" transform="matrix(4.966887448588033,0,0,4.966887448588033,107.21853853690712,-3.625828885879443)"><path d="M6.58 15.82C3.26 15.82 0.56 13.12 0.56 9.80C0.56 6.48 3.26 3.78 6.58 3.78C9.90 3.78 12.60 6.48 12.60 9.80C12.60 13.12 9.90 15.82 6.58 15.82ZM6.58 5.96C4.47 5.96 2.74 7.69 2.74 9.80C2.74 11.91 4.47 13.62 6.58 13.62C8.69 13.62 10.40 11.91 10.40 9.80C10.40 7.69 8.69 5.96 6.58 5.96ZM22.27 15.37L20.05 11.42L19.74 10.89L19.67 10.77C21.70 10.32 22.75 8.82 22.75 7.35C22.75 6.38 22.30 5.46 21.53 4.82C20.75 4.14 19.64 3.79 18.37 3.79L14.28 3.79C14.13 3.79 14 3.92 14 4.06L14 5.17L14.14 5.42L14.14 5.43L16.00 8.71L14 8.71L14 15.54C14 15.69 14.13 15.82 14.28 15.82L15.92 15.82C16.06 15.82 16.18 15.69 16.18 15.54L16.18 10.89L17.23 10.89L17.53 11.42L19.92 15.65L19.95 15.69C19.99 15.76 20.08 15.82 20.17 15.82L22.05 15.82C22.20 15.82 22.32 15.69 22.32 15.53C22.32 15.48 22.32 15.44 22.29 15.40ZM18.21 8.19L16.97 5.98L18.37 5.98C19.88 5.98 20.55 6.69 20.55 7.35C20.55 7.91 20.05 8.53 18.91 8.68C18.79 8.69 18.65 8.71 18.51 8.71ZM29.40 15.82C26.08 15.82 23.38 13.12 23.38 9.80C23.38 6.48 26.08 3.78 29.40 3.78C32.72 3.78 35.42 6.48 35.42 9.80C35.42 13.12 32.72 15.82 29.40 15.82ZM29.40 5.96C27.29 5.96 25.56 7.69 25.56 9.80C25.56 11.91 27.29 13.62 29.40 13.62C31.51 13.62 33.22 11.91 33.22 9.80C33.22 7.69 31.51 5.96 29.40 5.96ZM44.95 12.28C44.95 12.38 44.94 13.22 44.41 14.07C43.92 14.88 42.91 15.83 40.85 15.83C39.23 15.83 37.95 15.15 37.27 13.93C36.95 13.34 36.82 12.77 36.78 12.40C36.78 12.38 36.76 12.35 36.76 12.32C36.76 12.18 36.88 12.05 37.02 12.04L38.74 12.04C38.85 12.05 38.93 12.12 38.96 12.24L38.96 12.25C38.96 12.26 38.98 12.28 38.98 12.29C39.00 12.46 39.07 12.70 39.21 12.91C39.51 13.40 40.05 13.65 40.85 13.65C41.71 13.65 42.25 13.41 42.55 12.94C42.74 12.61 42.77 12.26 42.77 12.26C42.77 11.87 42.67 11.41 41.94 11.12C41.41 10.89 40.85 10.88 40.85 10.88C40.75 10.88 39.86 10.86 38.93 10.50C37.52 9.93 36.75 8.81 36.75 7.34C36.75 7.20 36.78 5.89 37.80 4.87C38.53 4.13 39.56 3.75 40.85 3.75C41.68 3.75 42.87 3.93 43.78 4.86C44.66 5.75 44.88 6.89 44.94 7.45L44.94 7.48C44.94 7.64 44.83 7.77 44.67 7.77L42.98 7.77C42.87 7.76 42.77 7.66 42.74 7.55L42.74 7.50C42.70 7.31 42.63 7.03 42.49 6.75C42.29 6.40 41.92 5.94 40.85 5.94C40.17 5.94 39.66 6.09 39.34 6.41C38.96 6.79 38.93 7.34 38.93 7.34C38.93 7.73 39.03 8.18 39.76 8.47C40.29 8.68 40.85 8.69 40.85 8.69C40.95 8.69 41.85 8.71 42.77 9.09C44.18 9.67 44.95 10.81 44.95 12.28ZM52.02 15.82C48.71 15.82 46.00 13.12 46.00 9.80C46.00 6.48 48.71 3.78 52.02 3.78C55.34 3.78 58.04 6.48 58.04 9.80C58.04 13.12 55.34 15.82 52.02 15.82ZM52.02 5.96C49.91 5.96 48.19 7.69 48.19 9.80C48.19 11.91 49.91 13.62 52.02 13.62C54.14 13.62 55.85 11.91 55.85 9.80C55.85 7.69 54.14 5.96 52.02 5.96ZM66.08 15.54C66.08 15.69 65.93 15.81 65.73 15.81L59.79 15.81C59.64 15.81 59.51 15.69 59.51 15.54L59.51 4.12C59.51 3.93 59.64 3.78 59.79 3.78L61.43 3.78C61.59 3.78 61.70 3.93 61.70 4.12L61.70 13.62L65.73 13.62C65.93 13.62 66.08 13.75 66.08 13.90ZM75.61 11.16C75.61 11.00 75.49 10.89 75.33 10.89L74.41 10.89L72.70 4.05L72.69 3.98C72.65 3.88 72.55 3.81 72.44 3.81L70.60 3.81C70.49 3.81 70.39 3.88 70.35 3.98L70.34 4.06L67.49 15.41C67.49 15.43 67.49 15.44 67.48 15.44L67.48 15.50C67.48 15.67 67.61 15.79 67.75 15.79L69.44 15.79C69.55 15.79 69.66 15.71 69.69 15.60C69.69 15.58 69.71 15.57 69.71 15.57L70.32 13.06L72.72 13.06L73.33 15.55L73.35 15.60C73.39 15.71 73.49 15.79 73.60 15.79L75.29 15.79C75.45 15.79 75.56 15.67 75.56 15.50L75.56 15.47L75.54 15.40L74.96 13.06L75.33 13.06C75.49 13.06 75.61 12.95 75.61 12.80ZM70.87 10.89L71.53 8.30L72.17 10.89ZM85.57 15.37L83.34 11.42L83.03 10.89L82.96 10.77C84.99 10.32 86.04 8.82 86.04 7.35C86.04 6.38 85.60 5.46 84.83 4.82C84.04 4.14 82.94 3.79 81.66 3.79L77.57 3.79C77.42 3.79 77.29 3.92 77.29 4.06L77.29 5.17L77.43 5.42L77.43 5.43L79.30 8.71L77.29 8.71L77.29 15.54C77.29 15.69 77.42 15.82 77.57 15.82L79.21 15.82C79.35 15.82 79.48 15.69 79.48 15.54L79.48 10.89L80.53 10.89L80.82 11.42L83.22 15.65L83.24 15.69C83.29 15.76 83.37 15.82 83.47 15.82L85.34 15.82C85.50 15.82 85.61 15.69 85.61 15.53C85.61 15.48 85.61 15.44 85.58 15.40ZM81.51 8.19L80.26 5.98L81.66 5.98C83.17 5.98 83.85 6.69 83.85 7.35C83.85 7.91 83.34 8.53 82.21 8.68C82.08 8.69 81.94 8.71 81.80 8.71Z"></path></g><!----><g data-v-423bf9ae="" id="8918edd6-9931-46df-b18f-9a5635e3f53f" transform="matrix(2.8125,0,0,2.8125,0,0)" stroke="none" fill="#131619"><circle cx="16" cy="16.021" r="8.066"></circle><path d="M32 0H0v32h32V0zM16 26.086c-5.551 0-10.066-4.516-10.066-10.065 0-5.55 4.516-10.066 10.066-10.066 5.55 0 10.065 4.516 10.065 10.066.001 5.55-4.515 10.065-10.065 10.065z"></path></g><!----></svg>